<svg width="509" height="88" viewBox="0 0 509 88" fill="none" xmlns="http://www.w3.org/2000/svg">
<path d="M28.04 87.2C22.76 87.2 18.04 85.92 13.88 83.36C9.72 80.72 6.4 77.16 3.92 72.68C1.52 68.2 0.32 63.16 0.32 57.56C0.32 51.96 1.52 46.92 3.92 42.44C6.4 37.96 9.72 34.4 13.88 31.76C18.04 29.12 22.76 27.8 28.04 27.8C32.28 27.8 36.12 28.72 39.56 30.56C43 32.32 45.76 34.8 47.84 38C50 41.12 51.2 44.76 51.44 48.92V66.08C51.2 70.16 50.04 73.8 47.96 77C45.88 80.2 43.12 82.72 39.68 84.56C36.24 86.32 32.36 87.2 28.04 87.2ZM29.84 77C33.44 77 36.56 76.16 39.2 74.48C41.92 72.8 44.04 70.52 45.56 67.64C47.08 64.68 47.84 61.32 47.84 57.56C47.84 53.64 47.04 50.24 45.44 47.36C43.92 44.48 41.8 42.2 39.08 40.52C36.44 38.84 33.32 38 29.72 38C26.12 38 22.96 38.84 20.24 40.52C17.52 42.2 15.36 44.52 13.76 47.48C12.24 50.36 11.48 53.68 11.48 57.44C11.48 61.28 12.24 64.68 13.76 67.64C15.36 70.52 17.52 72.8 20.24 74.48C23.04 76.16 26.24 77 29.84 77ZM58.04 86H47.12V70.64L49.16 56.72L47.12 42.92V0.319994H58.04V86ZM100.164 87.2C94.4838 87.2 89.3638 85.92 84.8038 83.36C80.2438 80.72 76.6438 77.16 74.0038 72.68C71.3638 68.2 70.0438 63.12 70.0438 57.44C70.0438 51.84 71.3238 46.8 73.8838 42.32C76.5238 37.84 80.0438 34.32 84.4438 31.76C88.9238 29.12 93.9238 27.8 99.4438 27.8C104.724 27.8 109.364 29 113.364 31.4C117.444 33.8 120.604 37.12 122.844 41.36C125.164 45.6 126.324 50.4 126.324 55.76C126.324 56.56 126.284 57.44 126.204 58.4C126.124 59.28 125.964 60.32 125.724 61.52H77.6038V52.52H119.964L116.004 56C116.004 52.16 115.324 48.92 113.964 46.28C112.604 43.56 110.684 41.48 108.204 40.04C105.724 38.52 102.724 37.76 99.2038 37.76C95.5238 37.76 92.2838 38.56 89.4838 40.16C86.6838 41.76 84.5238 44 83.0038 46.88C81.4838 49.76 80.7238 53.16 80.7238 57.08C80.7238 61.08 81.5238 64.6 83.1238 67.64C84.7238 70.6 87.0038 72.92 89.9638 74.6C92.9238 76.2 96.3238 77 100.164 77C103.364 77 106.284 76.44 108.924 75.32C111.644 74.2 113.964 72.52 115.884 70.28L122.844 77.36C120.124 80.56 116.764 83 112.764 84.68C108.844 86.36 104.644 87.2 100.164 87.2ZM138.1 86V0.319994H148.9V86H138.1ZM164.821 86V29H175.621V86H164.821ZM170.221 17.6C168.221 17.6 166.581 16.96 165.301 15.68C164.021 14.32 163.381 12.64 163.381 10.64C163.381 8.72 164.021 7.12 165.301 5.83999C166.581 4.47999 168.221 3.79999 170.221 3.79999C172.221 3.79999 173.861 4.47999 175.141 5.83999C176.421 7.12 177.061 8.72 177.061 10.64C177.061 12.64 176.421 14.32 175.141 15.68C173.861 16.96 172.221 17.6 170.221 17.6ZM211.097 86L184.937 29H196.937L217.937 77.12H210.977L232.097 29H243.617L217.457 86H211.097ZM277 87.2C271.32 87.2 266.2 85.92 261.64 83.36C257.08 80.72 253.48 77.16 250.84 72.68C248.2 68.2 246.88 63.12 246.88 57.44C246.88 51.84 248.16 46.8 250.72 42.32C253.36 37.84 256.88 34.32 261.28 31.76C265.76 29.12 270.76 27.8 276.28 27.8C281.56 27.8 286.2 29 290.2 31.4C294.28 33.8 297.44 37.12 299.68 41.36C302 45.6 303.16 50.4 303.16 55.76C303.16 56.56 303.12 57.44 303.04 58.4C302.96 59.28 302.8 60.32 302.56 61.52H254.44V52.52H296.8L292.84 56C292.84 52.16 292.16 48.92 290.8 46.28C289.44 43.56 287.52 41.48 285.04 40.04C282.56 38.52 279.56 37.76 276.04 37.76C272.36 37.76 269.12 38.56 266.32 40.16C263.52 41.76 261.36 44 259.84 46.88C258.32 49.76 257.56 53.16 257.56 57.08C257.56 61.08 258.36 64.6 259.96 67.64C261.56 70.6 263.84 72.92 266.8 74.6C269.76 76.2 273.16 77 277 77C280.2 77 283.12 76.44 285.76 75.32C288.48 74.2 290.8 72.52 292.72 70.28L299.68 77.36C296.96 80.56 293.6 83 289.6 84.68C285.68 86.36 281.48 87.2 277 87.2ZM344.936 87.2C340.616 87.2 336.696 86.32 333.176 84.56C329.736 82.72 326.976 80.2 324.896 77C322.816 73.8 321.656 70.16 321.416 66.08V48.92C321.656 44.76 322.816 41.12 324.896 38C327.056 34.8 329.856 32.32 333.296 30.56C336.816 28.72 340.696 27.8 344.936 27.8C350.136 27.8 354.816 29.12 358.976 31.76C363.216 34.4 366.536 37.96 368.936 42.44C371.336 46.92 372.536 51.96 372.536 57.56C372.536 63.16 371.336 68.2 368.936 72.68C366.536 77.16 363.216 80.72 358.976 83.36C354.816 85.92 350.136 87.2 344.936 87.2ZM314.936 86V0.319994H325.736V42.92L323.696 56.72L325.736 70.64V86H314.936ZM343.136 77C346.736 77 349.896 76.16 352.616 74.48C355.336 72.8 357.496 70.52 359.096 67.64C360.696 64.68 361.496 61.28 361.496 57.44C361.496 53.68 360.696 50.32 359.096 47.36C357.496 44.4 355.336 42.12 352.616 40.52C349.896 38.84 346.776 38 343.256 38C339.656 38 336.496 38.84 333.776 40.52C331.056 42.12 328.936 44.4 327.416 47.36C325.896 50.32 325.136 53.72 325.136 57.56C325.136 61.32 325.856 64.68 327.296 67.64C328.816 70.52 330.936 72.8 333.656 74.48C336.456 76.16 339.616 77 343.136 77ZM410.819 87.2C405.219 87.2 400.179 85.88 395.699 83.24C391.219 80.6 387.659 77.04 385.019 72.56C382.379 68 381.059 62.92 381.059 57.32C381.059 51.8 382.379 46.84 385.019 42.44C387.659 37.96 391.219 34.4 395.699 31.76C400.179 29.12 405.219 27.8 410.819 27.8C416.339 27.8 421.339 29.12 425.819 31.76C430.379 34.32 433.979 37.84 436.619 42.32C439.259 46.8 440.579 51.8 440.579 57.32C440.579 62.92 439.259 68 436.619 72.56C433.979 77.04 430.379 80.6 425.819 83.24C421.339 85.88 416.339 87.2 410.819 87.2ZM410.819 76.76C414.419 76.76 417.619 75.92 420.419 74.24C423.219 72.56 425.419 70.28 427.019 67.4C428.619 64.44 429.419 61.08 429.419 57.32C429.419 53.64 428.579 50.36 426.899 47.48C425.299 44.6 423.099 42.36 420.299 40.76C417.579 39.08 414.419 38.24 410.819 38.24C407.219 38.24 404.019 39.08 401.219 40.76C398.419 42.36 396.219 44.6 394.619 47.48C393.019 50.36 392.219 53.64 392.219 57.32C392.219 61.08 393.019 64.44 394.619 67.4C396.219 70.28 398.419 72.56 401.219 74.24C404.019 75.92 407.219 76.76 410.819 76.76ZM478.788 87.2C473.188 87.2 468.148 85.88 463.668 83.24C459.188 80.6 455.628 77.04 452.988 72.56C450.348 68 449.028 62.92 449.028 57.32C449.028 51.8 450.348 46.84 452.988 42.44C455.628 37.96 459.188 34.4 463.668 31.76C468.148 29.12 473.188 27.8 478.788 27.8C484.308 27.8 489.308 29.12 493.788 31.76C498.348 34.32 501.948 37.84 504.588 42.32C507.228 46.8 508.548 51.8 508.548 57.32C508.548 62.92 507.228 68 504.588 72.56C501.948 77.04 498.348 80.6 493.788 83.24C489.308 85.88 484.308 87.2 478.788 87.2ZM478.788 76.76C482.388 76.76 485.588 75.92 488.388 74.24C491.188 72.56 493.388 70.28 494.988 67.4C496.588 64.44 497.388 61.08 497.388 57.32C497.388 53.64 496.548 50.36 494.868 47.48C493.268 44.6 491.068 42.36 488.268 40.76C485.548 39.08 482.388 38.24 478.788 38.24C475.188 38.24 471.988 39.08 469.188 40.76C466.388 42.36 464.188 44.6 462.588 47.48C460.988 50.36 460.188 53.64 460.188 57.32C460.188 61.08 460.988 64.44 462.588 67.4C464.188 70.28 466.388 72.56 469.188 74.24C471.988 75.92 475.188 76.76 478.788 76.76Z" fill="#F7C548"/>
</svg>
