<svg width="684" height="157" viewBox="0 0 684 157" fill="none" xmlns="http://www.w3.org/2000/svg">
<path fill-rule="evenodd" clip-rule="evenodd" d="M0 10C0 4.47715 4.47715 0 10 0H55.5263H56.1749V0.00222564C102.34 0.319171 139.657 34.447 139.657 76.5C139.657 113.623 110.577 144.57 72 151.534V111H82C90.2843 111 97 104.284 97 96V89V44C97 41.2386 94.7614 39 92 39H82C79.2386 39 77 41.2386 77 44V89H69V44C69 41.2386 66.7614 39 64 39H54C51.2386 39 49 41.2386 49 44V89H42V44C42 41.2386 39.7614 39 37 39H27C24.2386 39 22 41.2386 22 44V89V96C22 104.284 28.7157 111 37 111H47V153H9.99999C4.47714 153 0 148.523 0 143V10Z" fill="#F7C548"/>
<path d="M199.04 127.2C193.76 127.2 189.04 125.92 184.88 123.36C180.72 120.72 177.4 117.16 174.92 112.68C172.52 108.2 171.32 103.16 171.32 97.56C171.32 91.96 172.52 86.92 174.92 82.44C177.4 77.96 180.72 74.4 184.88 71.76C189.04 69.12 193.76 67.8 199.04 67.8C203.28 67.8 207.12 68.72 210.56 70.56C214 72.32 216.76 74.8 218.84 78C221 81.12 222.2 84.76 222.44 88.92V106.08C222.2 110.16 221.04 113.8 218.96 117C216.88 120.2 214.12 122.72 210.68 124.56C207.24 126.32 203.36 127.2 199.04 127.2ZM200.84 117C204.44 117 207.56 116.16 210.2 114.48C212.92 112.8 215.04 110.52 216.56 107.64C218.08 104.68 218.84 101.32 218.84 97.56C218.84 93.64 218.04 90.24 216.44 87.36C214.92 84.48 212.8 82.2 210.08 80.52C207.44 78.84 204.32 78 200.72 78C197.12 78 193.96 78.84 191.24 80.52C188.52 82.2 186.36 84.52 184.76 87.48C183.24 90.36 182.48 93.68 182.48 97.44C182.48 101.28 183.24 104.68 184.76 107.64C186.36 110.52 188.52 112.8 191.24 114.48C194.04 116.16 197.24 117 200.84 117ZM229.04 126H218.12V110.64L220.16 96.72L218.12 82.92V40.32H229.04V126ZM271.164 127.2C265.484 127.2 260.364 125.92 255.804 123.36C251.244 120.72 247.644 117.16 245.004 112.68C242.364 108.2 241.044 103.12 241.044 97.44C241.044 91.84 242.324 86.8 244.884 82.32C247.524 77.84 251.044 74.32 255.444 71.76C259.924 69.12 264.924 67.8 270.444 67.8C275.724 67.8 280.364 69 284.364 71.4C288.444 73.8 291.604 77.12 293.844 81.36C296.164 85.6 297.324 90.4 297.324 95.76C297.324 96.56 297.284 97.44 297.204 98.4C297.124 99.28 296.964 100.32 296.724 101.52H248.604V92.52H290.964L287.004 96C287.004 92.16 286.324 88.92 284.964 86.28C283.604 83.56 281.684 81.48 279.204 80.04C276.724 78.52 273.724 77.76 270.204 77.76C266.524 77.76 263.284 78.56 260.484 80.16C257.684 81.76 255.524 84 254.004 86.88C252.484 89.76 251.724 93.16 251.724 97.08C251.724 101.08 252.524 104.6 254.124 107.64C255.724 110.6 258.004 112.92 260.964 114.6C263.924 116.2 267.324 117 271.164 117C274.364 117 277.284 116.44 279.924 115.32C282.644 114.2 284.964 112.52 286.884 110.28L293.844 117.36C291.124 120.56 287.764 123 283.764 124.68C279.844 126.36 275.644 127.2 271.164 127.2ZM309.1 126V40.32H319.9V126H309.1ZM335.821 126V69H346.621V126H335.821ZM341.221 57.6C339.221 57.6 337.581 56.96 336.301 55.68C335.021 54.32 334.381 52.64 334.381 50.64C334.381 48.72 335.021 47.12 336.301 45.84C337.581 44.48 339.221 43.8 341.221 43.8C343.221 43.8 344.861 44.48 346.141 45.84C347.421 47.12 348.061 48.72 348.061 50.64C348.061 52.64 347.421 54.32 346.141 55.68C344.861 56.96 343.221 57.6 341.221 57.6ZM382.097 126L355.937 69H367.937L388.937 117.12H381.977L403.097 69H414.617L388.457 126H382.097ZM448 127.2C442.32 127.2 437.2 125.92 432.64 123.36C428.08 120.72 424.48 117.16 421.84 112.68C419.2 108.2 417.88 103.12 417.88 97.44C417.88 91.84 419.16 86.8 421.72 82.32C424.36 77.84 427.88 74.32 432.28 71.76C436.76 69.12 441.76 67.8 447.28 67.8C452.56 67.8 457.2 69 461.2 71.4C465.28 73.8 468.44 77.12 470.68 81.36C473 85.6 474.16 90.4 474.16 95.76C474.16 96.56 474.12 97.44 474.04 98.4C473.96 99.28 473.8 100.32 473.56 101.52H425.44V92.52H467.8L463.84 96C463.84 92.16 463.16 88.92 461.8 86.28C460.44 83.56 458.52 81.48 456.04 80.04C453.56 78.52 450.56 77.76 447.04 77.76C443.36 77.76 440.12 78.56 437.32 80.16C434.52 81.76 432.36 84 430.84 86.88C429.32 89.76 428.56 93.16 428.56 97.08C428.56 101.08 429.36 104.6 430.96 107.64C432.56 110.6 434.84 112.92 437.8 114.6C440.76 116.2 444.16 117 448 117C451.2 117 454.12 116.44 456.76 115.32C459.48 114.2 461.8 112.52 463.72 110.28L470.68 117.36C467.96 120.56 464.6 123 460.6 124.68C456.68 126.36 452.48 127.2 448 127.2ZM515.936 127.2C511.616 127.2 507.696 126.32 504.176 124.56C500.736 122.72 497.976 120.2 495.896 117C493.816 113.8 492.656 110.16 492.416 106.08V88.92C492.656 84.76 493.816 81.12 495.896 78C498.056 74.8 500.856 72.32 504.296 70.56C507.816 68.72 511.696 67.8 515.936 67.8C521.136 67.8 525.816 69.12 529.976 71.76C534.216 74.4 537.536 77.96 539.936 82.44C542.336 86.92 543.536 91.96 543.536 97.56C543.536 103.16 542.336 108.2 539.936 112.68C537.536 117.16 534.216 120.72 529.976 123.36C525.816 125.92 521.136 127.2 515.936 127.2ZM485.936 126V40.32H496.736V82.92L494.696 96.72L496.736 110.64V126H485.936ZM514.136 117C517.736 117 520.896 116.16 523.616 114.48C526.336 112.8 528.496 110.52 530.096 107.64C531.696 104.68 532.496 101.28 532.496 97.44C532.496 93.68 531.696 90.32 530.096 87.36C528.496 84.4 526.336 82.12 523.616 80.52C520.896 78.84 517.776 78 514.256 78C510.656 78 507.496 78.84 504.776 80.52C502.056 82.12 499.936 84.4 498.416 87.36C496.896 90.32 496.136 93.72 496.136 97.56C496.136 101.32 496.856 104.68 498.296 107.64C499.816 110.52 501.936 112.8 504.656 114.48C507.456 116.16 510.616 117 514.136 117ZM581.819 127.2C576.219 127.2 571.179 125.88 566.699 123.24C562.219 120.6 558.659 117.04 556.019 112.56C553.379 108 552.059 102.92 552.059 97.32C552.059 91.8 553.379 86.84 556.019 82.44C558.659 77.96 562.219 74.4 566.699 71.76C571.179 69.12 576.219 67.8 581.819 67.8C587.339 67.8 592.339 69.12 596.819 71.76C601.379 74.32 604.979 77.84 607.619 82.32C610.259 86.8 611.579 91.8 611.579 97.32C611.579 102.92 610.259 108 607.619 112.56C604.979 117.04 601.379 120.6 596.819 123.24C592.339 125.88 587.339 127.2 581.819 127.2ZM581.819 116.76C585.419 116.76 588.619 115.92 591.419 114.24C594.219 112.56 596.419 110.28 598.019 107.4C599.619 104.44 600.419 101.08 600.419 97.32C600.419 93.64 599.579 90.36 597.899 87.48C596.299 84.6 594.099 82.36 591.299 80.76C588.579 79.08 585.419 78.24 581.819 78.24C578.219 78.24 575.019 79.08 572.219 80.76C569.419 82.36 567.219 84.6 565.619 87.48C564.019 90.36 563.219 93.64 563.219 97.32C563.219 101.08 564.019 104.44 565.619 107.4C567.219 110.28 569.419 112.56 572.219 114.24C575.019 115.92 578.219 116.76 581.819 116.76ZM649.788 127.2C644.188 127.2 639.148 125.88 634.668 123.24C630.188 120.6 626.628 117.04 623.988 112.56C621.348 108 620.028 102.92 620.028 97.32C620.028 91.8 621.348 86.84 623.988 82.44C626.628 77.96 630.188 74.4 634.668 71.76C639.148 69.12 644.188 67.8 649.788 67.8C655.308 67.8 660.308 69.12 664.788 71.76C669.348 74.32 672.948 77.84 675.588 82.32C678.228 86.8 679.548 91.8 679.548 97.32C679.548 102.92 678.228 108 675.588 112.56C672.948 117.04 669.348 120.6 664.788 123.24C660.308 125.88 655.308 127.2 649.788 127.2ZM649.788 116.76C653.388 116.76 656.588 115.92 659.388 114.24C662.188 112.56 664.388 110.28 665.988 107.4C667.588 104.44 668.388 101.08 668.388 97.32C668.388 93.64 667.548 90.36 665.868 87.48C664.268 84.6 662.068 82.36 659.268 80.76C656.548 79.08 653.388 78.24 649.788 78.24C646.188 78.24 642.988 79.08 640.188 80.76C637.388 82.36 635.188 84.6 633.588 87.48C631.988 90.36 631.188 93.64 631.188 97.32C631.188 101.08 631.988 104.44 633.588 107.4C635.188 110.28 637.388 112.56 640.188 114.24C642.988 115.92 646.188 116.76 649.788 116.76Z" fill="#F7C548"/>
</svg>
