<svg width="140" height="153" viewBox="0 0 140 153" fill="none" xmlns="http://www.w3.org/2000/svg">
<path fill-rule="evenodd" clip-rule="evenodd" d="M0 10C0 4.47715 4.47715 0 10 0H55.5263H56.1749V0.00222564C102.34 0.319171 139.657 34.447 139.657 76.5C139.657 113.623 110.577 144.57 72 151.534V111H82C90.2843 111 97 104.284 97 96V89V44C97 41.2386 94.7614 39 92 39H82C79.2386 39 77 41.2386 77 44V89H69V44C69 41.2386 66.7614 39 64 39H54C51.2386 39 49 41.2386 49 44V89H42V44C42 41.2386 39.7614 39 37 39H27C24.2386 39 22 41.2386 22 44V89V96C22 104.284 28.7157 111 37 111H47V153H9.99999C4.47714 153 0 148.523 0 143V10Z" fill="#F7C548"/>
</svg>
