<svg width="805" height="577" viewBox="0 0 805 577" fill="none" xmlns="http://www.w3.org/2000/svg">
<path d="M81.4261 467.357H727.054L729.463 468.321L734.281 472.657L738.135 477.475L740.063 482.775L741.026 492.893V525.656L740.063 533.847L738.135 539.147L733.799 546.374L729.463 551.674L724.163 557.456L720.308 561.311L713.563 566.61L704.409 572.392L698.627 575.765L571.91 576.247H500.602L444.712 576.729H170.561L128.162 575.283L113.226 573.356L105.035 571.429L99.2532 569.02L93.9533 565.165L90.0988 561.311L86.2443 557.938L80.9443 552.638L77.5717 547.82L74.6808 543.002L71.7899 532.884L70.8263 526.62L69.8627 509.757V482.775L71.7899 478.439L74.6808 474.103L79.0171 469.285L81.4261 467.357Z" fill="#2BB3AC" fill-opacity="0.15"/>
<path d="M31.7996 355.095L33.7268 355.577L37.5813 358.95L44.3267 365.695L48.1812 369.068L53.9629 377.258L58.2992 382.077L59.2628 382.558V383.522L61.1901 384.486L65.0446 388.34L71.7899 393.64L79.0171 398.458L86.7261 402.313L92.5078 403.758L96.8441 403.276L105.035 400.867L122.38 393.158L134.907 386.895L150.807 379.668L162.852 374.849L175.379 370.995L185.016 369.068L191.761 368.104H207.661L221.152 370.031L235.606 373.404L254.878 379.668L265.478 384.004L275.114 388.34L289.087 395.086L304.505 403.276L315.105 409.058L328.596 415.322L335.823 417.731L346.904 419.658H357.022L371.477 418.212L381.113 415.803L388.822 412.913L403.276 406.167L411.467 401.831L422.549 396.531L434.112 390.749L447.603 384.486L459.167 379.186L476.512 371.959L488.075 367.622L499.639 363.768L511.202 360.877L522.766 358.95L535.293 357.986L546.856 357.504H580.101L595.037 358.95L609.974 361.841L622.019 365.213L635.991 370.513L650.446 376.777L683.209 392.676L699.591 399.904L711.636 404.722L717.418 406.649L720.79 406.167L726.572 404.24L734.281 399.904L741.99 394.122L747.29 389.786L754.517 383.04L760.299 376.777L764.635 371.959L774.753 358.468L777.644 355.577H780.053L782.462 357.986L785.353 361.841L788.726 367.622L792.58 377.74L794.989 386.895L795.471 390.749V401.349L794.507 408.576L792.58 414.358L788.244 422.549L783.908 427.849L780.053 431.703L774.753 435.076L771.862 436.04L756.926 437.485L745.363 437.967L716.454 438.449L699.591 438.93L604.674 439.412L445.194 439.894H48.1812L39.9904 436.04L31.7996 430.258L26.9814 425.44L22.6451 418.694L19.7543 411.949L17.827 402.795V389.304L19.7543 379.668L22.1633 372.44L26.0178 364.731L30.3541 357.022L31.7996 355.095Z" fill="#2BB3AC" fill-opacity="0.15"/>
<path d="M171.525 239.46H442.303L581.065 239.942L688.027 240.424L744.399 241.388L765.117 242.351L780.535 243.797L787.28 244.76L794.989 247.169L799.326 250.06L803.18 254.397L804.625 258.733V264.033L802.698 268.851L798.844 272.224L790.653 276.078L779.571 279.933L767.526 283.305L757.408 285.714L748.253 287.16L737.172 287.642L728.017 286.678L717.899 283.787L704.409 278.969L689.472 273.187L682.727 271.742H675.018L665.382 273.669L644.664 280.896L633.101 284.751L623.946 286.678L620.092 287.16H606.119L593.11 285.232L581.065 281.86L569.983 278.005L557.456 273.187L549.747 271.26L546.374 270.778L538.665 271.26L528.066 273.669L512.166 278.969L498.675 283.787L488.075 286.196L481.812 287.16H463.021L448.567 284.751L431.221 278.969L415.803 272.705L409.058 271.26H400.385L391.231 273.669L382.077 277.042L367.622 282.823L357.986 285.714L350.277 287.16H337.75L329.559 285.714L320.405 283.305L295.832 274.633L292.46 275.114L275.114 280.896L261.624 285.232L255.36 286.678L251.506 287.16H241.388L231.27 285.232L213.924 279.451L198.025 273.187L191.279 270.778H181.643L172.489 273.187L155.143 278.969L136.835 285.232L134.425 285.714L105.999 286.678L86.7261 287.16H9.63623L2.40906 286.678L0 284.269V271.26L5.78174 264.515L12.0453 258.733L20.2361 252.951L28.4269 248.615L36.1359 245.724L48.1812 242.833L58.2992 241.388L75.1626 240.424L171.525 239.46Z" fill="#2BB3AC" fill-opacity="0.15"/>
<path d="M325.705 310.287H363.768L650.446 311.25L688.027 311.732L707.299 312.214L726.09 313.178L739.581 314.623L746.326 316.068L752.108 318.477L757.408 321.85L763.19 326.668V327.632L759.335 331.005L754.999 335.823L749.699 341.123L746.326 344.977L734.763 356.541L729.463 356.059L693.327 348.832L664.9 344.013L640.809 340.641L613.346 337.75L598.892 336.786L583.956 336.305H571.429L555.529 336.786L541.074 337.75L515.057 340.641L496.266 343.532L468.803 348.35L446.158 352.204L423.994 355.577L398.458 358.468L381.595 359.431H359.431L341.604 358.468L320.405 356.059L292.46 351.722L271.26 348.35L240.424 344.495L216.815 342.568L206.697 342.086H161.407L137.316 343.532L113.226 345.941L91.0624 348.832L76.1262 351.241H72.2717L66.9718 346.904L59.2628 340.641L55.4083 337.75L49.1448 331.486L45.7721 327.632L41.9176 323.296L41.4358 321.368L42.8812 318.477L44.8085 316.55L52.5175 314.623L62.6355 312.696L72.7535 311.732L106.48 311.25L184.534 310.768L325.705 310.287Z" fill="#2BB3AC" fill-opacity="0.15"/>
<path fill-rule="evenodd" clip-rule="evenodd" d="M419.176 0H393.64L378.222 0.963623L357.022 2.89087L343.05 4.3363L321.85 7.22717L297.76 11.5635L278.969 15.8998L258.251 21.6815L240.906 27.4633L226.933 32.7632L209.588 39.9904L185.497 52.0357L176.825 56.8538L167.67 62.1537L158.034 68.4173L150.325 73.7172L141.653 79.9807L129.607 89.617L124.789 93.9533L120.935 97.3259L110.335 107.926L103.589 115.153L97.3259 122.38L91.0624 130.571L84.317 140.689L79.0171 150.807L74.6808 161.407L71.7899 172.007L70.3445 181.161L69.3809 193.688V201.879L70.8263 203.806L74.6808 206.215L82.8716 208.143L96.8441 209.588L116.598 210.552L169.116 211.515L236.088 211.997H572.874L652.373 211.515L693.809 210.552L707.299 210.07L721.754 209.106L731.39 207.661L737.654 205.734L741.508 202.361V191.279L741.026 183.57L740.063 175.861L738.135 167.67L734.763 157.552L731.39 149.843L726.572 141.171L718.863 129.607L714.045 123.826L708.745 117.08L693.327 101.662L686.582 95.8805L680.318 90.5806L672.127 84.317L663.455 78.0535L649 68.4173L639.364 62.6355L627.801 55.8901L612.864 48.1812L605.155 44.3267L586.365 35.6541L572.874 30.3541L556.974 24.5724L530.956 16.8634L507.348 11.5635L489.521 8.1908L464.466 4.3363L433.149 0.963623L419.176 0ZM624.672 136.497L621.781 136.016L616.481 139.87L614.072 144.688L615.517 149.025L622.263 159.143L628.526 166.852L632.863 172.151L636.717 175.524L639.608 176.006L642.499 174.561L645.872 171.188L647.799 168.297V164.924L646.835 162.033L642.017 154.324L637.199 148.061L633.826 144.206L628.526 139.388L624.672 136.497ZM313.686 95.7833L316.577 96.2651L320.432 99.156L325.732 103.974L329.104 107.829L333.922 114.092L338.74 121.801L339.704 124.692V128.065L337.777 130.956L334.404 134.328L331.513 135.774L328.622 135.292L324.768 131.919L320.432 126.619L314.168 118.91L307.423 108.792L305.977 104.456L308.386 99.6378L313.686 95.7833ZM559.898 160.272L555.562 159.308L553.153 160.272L549.78 163.163L547.853 166.535L547.371 169.908L548.335 172.317L551.226 175.69L556.044 180.026L560.862 183.88L568.571 188.217L574.353 190.626H578.207L581.58 188.217L584.471 183.88V180.508L583.989 179.062L581.098 174.244L576.28 169.908L567.607 164.126L559.898 160.272ZM157.071 116.598H161.407L163.816 118.044L165.261 120.453V127.198L162.852 132.98L158.998 139.725L155.143 144.543L150.807 149.362L146.953 152.734L142.616 154.662L139.725 154.18L137.316 151.771L135.871 148.398L136.353 143.098L138.762 135.871L142.616 128.644L147.916 121.898L151.771 118.526L154.662 117.08L157.071 116.598ZM236.512 98.3826L233.139 97.9008L231.693 98.3826L226.875 101.273L222.057 106.092L216.276 112.837L213.866 117.655V121.028L216.757 126.81L220.13 129.7H223.984L226.394 128.737L232.175 124.4L237.957 118.619L242.293 113.801L245.184 109.946V106.092L244.702 105.128L240.366 100.792L236.512 98.3826ZM322.346 159.308H331.501L341.619 162.199L347.882 165.572L351.737 168.944L353.664 172.799L353.182 176.653L351.255 179.544L347.882 182.435L346.919 182.917H342.583L331.501 179.062L323.792 175.208L319.937 172.317L317.047 168.462L316.565 165.572L318.01 161.717L320.901 159.79L322.346 159.308ZM406.38 144.39L402.044 143.427L398.671 144.39L395.299 147.281L393.853 150.172L394.335 153.545L397.226 157.881L405.417 166.072L412.162 171.854L418.907 175.226L423.244 173.781L426.616 169.926V165.108L425.653 162.699L421.798 156.918L417.944 153.063L411.68 147.281L406.38 144.39ZM644.896 92.6071H651.159L655.014 94.5343L657.423 98.3888L657.904 102.725L655.495 106.58L650.677 110.916L641.523 115.252L637.187 116.698H632.368L628.996 114.77L626.105 110.916L624.659 108.025V104.171L626.587 101.28L629.959 98.3888L637.668 94.5343L644.896 92.6071ZM510.809 119.558L507.437 119.076L504.546 120.521L501.655 124.857L499.728 131.603V144.612L500.209 146.539L503.582 153.284L506.473 155.693H509.364L510.327 155.212L513.218 152.803L516.591 146.057L518.036 140.757V128.23L516.591 124.376L513.7 121.003L510.809 119.558ZM279.622 137.074H273.359L270.468 138.52L266.613 141.411L264.686 145.265V148.638L267.095 152.974L270.468 155.865L275.286 158.274L282.513 160.201H286.368L291.668 158.274L294.559 153.938V150.083L294.077 148.156L291.668 144.302L287.331 140.929L279.622 137.074ZM467.839 72.2717H470.73L474.584 75.6444L476.512 79.4989L476.993 81.908V91.5442L475.066 98.7714L471.694 105.035L468.803 106.962L464.948 106.48L461.576 103.59L459.166 98.7714L458.203 94.4351V87.6897L459.648 81.908L462.057 77.5717L464.948 74.199L467.839 72.2717ZM201.941 172.013H210.132L213.986 173.458L218.323 177.313L219.768 180.204V184.54L217.359 188.395L213.023 191.285L208.686 192.731H201.941L198.087 191.285L195.196 188.876L193.75 185.985V179.24L195.678 175.386L200.014 172.495L201.941 172.013ZM330.823 41.7873H325.041L323.595 42.2691L321.186 44.6782L319.741 49.0145V54.7962L321.186 62.5052L323.114 66.8415L325.523 68.287H329.859L332.268 67.3233L335.641 64.4325L337.568 61.5416L339.495 56.2417V50.9418L338.05 47.0873L335.159 43.7146L330.823 41.7873ZM562.973 101.077H567.309L571.646 102.522L575.5 105.413L578.391 109.75L578.873 111.195V116.013L576.946 118.904L573.573 121.795L570.682 122.759H564.419L559.6 120.831L556.228 116.977L554.782 112.641V109.268L556.228 105.413L560.082 102.041L562.973 101.077ZM470.964 155.073H465.664L463.736 155.555L459.882 157.964L458.437 160.855V167.6L459.882 172.418L462.291 175.309L464.7 176.755H471.927L475.782 175.309L479.154 172.418L481.082 169.046V163.264L478.673 158.446L475.782 156.518L470.964 155.073ZM405.204 96.3623H419.176L425.921 97.8078L428.331 100.217L428.812 105.517L427.849 108.889L425.921 110.335L421.585 111.298L416.767 111.78H408.094L403.758 110.817L401.349 108.889L400.385 106.962V102.144L401.831 98.7714L404.24 96.8441L405.204 96.3623ZM385.695 18.7708C384.087 19.0514 382.552 19.5639 381.091 20.3085C379.131 21.3072 377.378 22.537 375.833 23.9977C374.323 25.4403 373.18 26.898 372.404 28.3708C371.946 29.233 371.648 30.0581 371.511 30.8463C371.409 31.6163 371.604 32.4824 372.094 33.4447L380.32 49.5898C380.774 50.4808 381.254 51.1569 381.758 51.6182C382.28 52.0257 382.836 52.2808 383.427 52.3837C384.019 52.4865 384.644 52.4371 385.305 52.2353C386.001 52.0153 386.741 51.7056 387.525 51.3061C388.344 50.8884 389.101 50.4354 389.795 49.9472C390.525 49.4407 391.041 49.0433 391.343 48.7547L381.782 29.9901C382.012 29.6485 382.313 29.2705 382.685 28.8563C383.04 28.4063 383.538 28.018 384.179 27.6911C385.106 27.2189 386.017 27.0689 386.913 27.241C387.826 27.3593 388.555 27.953 389.1 29.0222L395.61 41.7993C396.064 42.6903 396.543 43.3664 397.048 43.8277C397.569 44.2352 398.126 44.4904 398.717 44.5932C399.308 44.6961 399.934 44.6466 400.594 44.4448C401.29 44.2248 402.03 43.9151 402.814 43.5156C403.599 43.1161 404.338 42.6722 405.032 42.1839C405.761 41.6775 406.295 41.2709 406.632 40.9643L397.562 23.1619L397.398 22.8412C397.325 22.6986 397.235 22.5651 397.127 22.4407C397.285 22.046 397.594 21.5964 398.056 21.092C398.499 20.552 398.97 20.1548 399.469 19.9006C400.502 19.374 401.449 19.2058 402.309 19.396C403.151 19.5506 403.845 20.1626 404.389 21.2318L410.9 34.0088C411.354 34.8998 411.833 35.576 412.337 36.0372C412.859 36.4447 413.416 36.6999 414.007 36.8027C414.598 36.9056 415.224 36.8561 415.884 36.6543C416.58 36.4344 417.32 36.1246 418.104 35.7251C418.924 35.3074 419.681 34.8545 420.375 34.3662C421.104 33.8598 421.62 33.4623 421.922 33.1738L413.342 16.3338C412.415 14.5161 411.332 13.1379 410.09 12.1992C408.83 11.2249 407.493 10.6268 406.078 10.405C404.681 10.1294 403.232 10.1493 401.732 10.4648C400.267 10.7622 398.858 11.2559 397.503 11.9459C395.614 12.9084 394.111 13.9663 392.992 15.1197C391.91 16.255 391.016 17.4514 390.31 18.709C388.858 18.4159 387.32 18.4365 385.695 18.7708ZM507.9 50.18C507.012 53.0871 505.226 55.0298 502.542 56.0081C499.859 56.9863 496.394 56.8264 492.148 55.5282C490.542 55.037 489.085 54.4662 487.778 53.8157C486.471 53.1651 485.391 52.4583 484.536 51.6952C483.732 50.9056 483.154 50.0596 482.803 49.1574C482.489 48.2669 482.485 47.3244 482.789 46.3298C483.069 45.4118 483.495 44.7052 484.064 44.2101C484.646 43.6768 485.268 43.2816 485.933 43.0245C486.855 43.9757 487.947 44.9163 489.211 45.8463C490.524 46.7497 492.118 47.488 493.992 48.061C495.178 48.4235 496.13 48.5262 496.847 48.3691C497.602 48.2236 498.068 47.864 498.243 47.2902C498.407 46.7547 498.306 46.2638 497.941 45.8174C497.575 45.371 496.886 44.8885 495.874 44.3698L494.257 43.4992C491.128 41.8315 488.952 40.0577 487.728 38.1777C486.554 36.2712 486.365 34.0174 487.16 31.4162C487.593 30.0009 488.291 28.813 489.253 27.8525C490.216 26.8921 491.369 26.1989 492.713 25.773C494.056 25.3471 495.557 25.1577 497.216 25.2047C498.913 25.2634 500.698 25.5793 502.573 26.1524C503.988 26.5851 505.272 27.1033 506.426 27.7071C507.63 28.2842 508.627 28.9236 509.416 29.625C510.206 30.3265 510.763 31.1033 511.088 31.9556C511.425 32.7696 511.453 33.6356 511.172 34.5537C510.903 35.4335 510.497 36.1459 509.954 36.6909C509.461 37.2094 508.901 37.603 508.275 37.8718C508.028 37.5869 507.627 37.2554 507.074 36.877C506.532 36.4603 505.921 36.0644 505.241 35.6892C504.573 35.2757 503.873 34.8947 503.143 34.546C502.452 34.2091 501.8 33.947 501.188 33.7599C499.925 33.374 498.903 33.2288 498.121 33.3243C497.351 33.3815 496.872 33.7162 496.685 34.3282C496.556 34.749 496.642 35.1517 496.943 35.5365C497.244 35.9212 497.894 36.392 498.895 36.949L500.551 37.8944C503.966 39.8587 506.211 41.8206 507.285 43.7803C508.408 45.7133 508.614 47.8466 507.9 50.18ZM568.915 74.3915C570.026 74.4978 570.92 74.4399 571.596 74.218C572.362 73.5177 573.266 72.6123 574.309 71.5019C575.403 70.3677 576.531 69.1394 577.693 67.8172C578.855 66.495 580.013 65.1284 581.165 63.7173C582.354 62.32 583.416 60.9824 584.349 59.7045C585.334 58.4028 586.163 57.236 586.836 56.2041C587.561 55.1483 588.033 54.3197 588.252 53.7183C588.758 52.3276 588.663 51.1861 587.966 50.294C587.269 49.4018 586.263 48.7163 584.947 48.2375C584.195 47.9639 583.372 47.7706 582.477 47.6575C581.619 47.5582 580.809 47.5613 580.047 47.667C578.218 50.7046 576.293 53.7712 574.272 56.8668C572.251 59.9624 570.378 62.771 568.651 65.2925L568.369 65.1899C568.455 64.3697 568.556 63.2147 568.673 61.7247C568.803 60.1972 568.969 58.5124 569.172 56.6705L570.112 47.2438C570.246 45.5898 569.977 44.3423 569.304 43.5015C568.682 42.6367 567.713 41.9648 566.398 41.486C565.345 41.103 564.293 40.954 563.24 41.0391C562.239 41.1003 561.379 41.2983 560.662 41.633C560.514 42.8564 560.381 44.2763 560.26 45.8927C560.14 47.5091 560.037 49.1956 559.951 50.9521C559.903 52.7223 559.867 54.5182 559.842 56.3397C559.818 58.1611 559.809 59.8818 559.815 61.5017C559.835 63.084 559.859 64.5398 559.885 65.8692C559.964 67.1747 560.056 68.2085 560.161 68.9706C560.274 69.948 560.788 70.8162 561.704 71.5751C562.657 72.3477 563.866 73.0008 565.332 73.5344C566.61 73.9995 567.805 74.2852 568.915 74.3915ZM187.853 97.38C185.1 97.38 182.533 97.0066 180.153 96.26C177.82 95.4666 175.766 94.3 173.993 92.76C172.266 91.22 170.89 89.2833 169.863 86.95C168.883 84.6166 168.393 81.8866 168.393 78.76C168.393 75.68 168.883 73.0433 169.863 70.85C170.89 68.61 172.22 66.79 173.853 65.39C175.486 63.9433 177.353 62.8933 179.453 62.24C181.553 61.54 183.7 61.19 185.893 61.19C188.366 61.19 190.606 61.5633 192.613 62.31C194.666 63.0566 196.416 64.0833 197.863 65.39C199.356 66.6966 200.5 68.26 201.293 70.08C202.133 71.9 202.553 73.8833 202.553 76.03C202.553 77.6166 202.11 78.83 201.223 79.67C200.336 80.51 199.1 81.0466 197.513 81.28L180.223 83.87C180.736 85.41 181.786 86.5766 183.373 87.37C184.96 88.1166 186.78 88.49 188.833 88.49C190.746 88.49 192.543 88.2566 194.223 87.79C195.95 87.2766 197.35 86.6933 198.423 86.04C199.17 86.5066 199.8 87.16 200.313 88C200.826 88.84 201.083 89.7266 201.083 90.66C201.083 92.76 200.103 94.3233 198.143 95.35C196.65 96.1433 194.97 96.68 193.103 96.96C191.236 97.24 189.486 97.38 187.853 97.38ZM185.893 69.87C184.773 69.87 183.793 70.0566 182.953 70.43C182.16 70.8033 181.506 71.2933 180.993 71.9C180.48 72.46 180.083 73.1133 179.803 73.86C179.57 74.56 179.43 75.2833 179.383 76.03L191.353 74.07C191.213 73.1366 190.7 72.2033 189.813 71.27C188.926 70.3366 187.62 69.87 185.893 69.87ZM262.813 41.5598C261.493 42.8672 260.426 44.6391 259.612 46.8756L249.7 74.1079C249.301 75.2042 249.106 76.151 249.114 76.9484C249.181 77.7179 249.406 78.3958 249.789 78.982C250.171 79.5682 250.711 80.0628 251.409 80.4656C252.15 80.8845 253.004 81.2695 253.968 81.6206C254.977 81.9877 255.966 82.2731 256.934 82.4767C257.947 82.6963 258.697 82.8201 259.183 82.8482L266.772 61.9964L274.337 64.7497C275.477 65.1646 276.496 65.163 277.393 64.7446C278.35 64.2983 279.108 63.3078 279.666 61.7729C279.986 60.8959 280.141 60.0587 280.134 59.2613C280.186 58.436 280.168 57.7343 280.08 57.1561L269.293 53.2297L270.059 51.1248C270.633 49.5461 271.559 48.6413 272.835 48.4105C274.127 48.1358 275.715 48.3416 277.601 49.0279C278.785 49.4588 279.784 49.9216 280.597 50.4162C281.47 50.883 282.283 51.3776 283.036 51.9001C283.603 51.7089 284.189 51.3263 284.795 50.7524C285.445 50.1944 285.93 49.4769 286.249 48.5998C286.999 46.5388 286.758 44.8123 285.527 43.4205C284.311 41.9848 282.081 40.6764 278.836 39.4953C276.819 38.7611 274.823 38.308 272.85 38.136C270.92 37.9799 269.106 38.1887 267.407 38.7623C265.725 39.2921 264.193 40.2246 262.813 41.5598Z" fill="#2BB3AC" fill-opacity="0.15"/>
</svg>
